HIERARCHY
ROOT Hips
{
	OFFSET 0.000000 0.000000 0.000000
	CHANNELS 6 Xposition Yposition Zposition Zrotation Yrotation Xrotation 
	JOINT LeftUpLeg
	{
		OFFSET 1.363060 -1.794630 0.839290
		CHANNELS 3 Zrotation Yrotation Xrotation
		JOINT LeftLeg
		{
			OFFSET 2.448110 -6.726130 0.000000
			CHANNELS 3 Zrotation Yrotation Xrotation
			JOINT LeftFoot
			{
				OFFSET 2.562200 -7.039590 0.000000
				CHANNELS 3 Zrotation Yrotation Xrotation
				JOINT LeftToeBase
				{
					OFFSET 0.157640 -0.433110 2.322550
					CHANNELS 3 Zrotation Yrotation Xrotation
				}
			}
		}
	}
	JOINT RightUpLeg
	{
		OFFSET -1.305520 -1.794630 0.839290
		CHANNELS 3 Zrotation Yrotation Xrotation
		JOINT RightLeg
		{
			OFFSET -2.542530 -6.985550 0.000000
			CHANNELS 3 Zrotation Yrotation Xrotation
			JOINT RightFoot
			{
				OFFSET -2.568260 -7.056230 0.000000
				CHANNELS 3 Zrotation Yrotation Xrotation
				JOINT RightToeBase
				{
					OFFSET -0.164730 -0.452590 2.363150
					CHANNELS 3 Zrotation Yrotation Xrotation
				}
			}
		}
	}
	JOINT Spine
	{
		OFFSET 0.028270 2.035590 -0.193380
		CHANNELS 3 Zrotation Yrotation Xrotation
		JOINT Spine1
		{
			OFFSET 0.056720 2.048850 -0.042750
			CHANNELS 3 Zrotation Yrotation Xrotation
			JOINT Neck1
			{
				OFFSET -0.054170 1.746240 0.172020
				CHANNELS 3 Zrotation Yrotation Xrotation
				JOINT Head
				{
					OFFSET 0.104070 1.761360 -0.123970
					CHANNELS 3 Zrotation Yrotation Xrotation
				}
			}
			JOINT LeftArm
			{
				OFFSET 3.362410 1.200890 -0.311210
				CHANNELS 3 Zrotation Yrotation Xrotation
				JOINT LeftForeArm
				{
					OFFSET 4.983000 -0.000000 -0.000000
					CHANNELS 3 Zrotation Yrotation Xrotation
					JOINT LeftHand
					{
						OFFSET 3.483560 -0.000000 -0.000000
						CHANNELS 3 Zrotation Yrotation Xrotation
						JOINT LeftHandIndex1
						{
							OFFSET 0.715260 -0.000000 -0.000000
							CHANNELS 3 Zrotation Yrotation Xrotation
						}
					}
				}
			}
			JOINT RightArm
			{
				OFFSET -3.136600 1.374050 -0.404650
				CHANNELS 3 Zrotation Yrotation Xrotation
				JOINT RightForeArm
				{
					OFFSET -5.241900 -0.000000 -0.000000
					CHANNELS 3 Zrotation Yrotation Xrotation
					JOINT RightHand
					{
						OFFSET -3.444170 -0.000000 -0.000000
						CHANNELS 3 Zrotation Yrotation Xrotation
						JOINT RightHandIndex1
						{
							OFFSET -0.622530 -0.000000 -0.000000
							CHANNELS 3 Zrotation Yrotation Xrotation
						}
					}
				}
			}
		}
	}
}
MOTION
Frames: 10
Frame Time: 0.016667
2.110333 16.188725 82.408432 -3.504646 2.396640 -10.520666 -10.652069 -11.323928 -36.278154 5.503190 16.058101 44.935737 2.920636 0.256359 31.985510 0.029500 -1.108800 -3.048402 13.363609 1.409235 -26.063258 -19.202979 -19.726683 86.306907 -1.585794 0.513981 27.882650 -1.440700 7.588301 -21.470303 6.910232 3.925466 17.826656 0.052618 1.413201 -6.888627 3.475943 -4.931105 -10.037046 1.199499 -1.751300 6.166100 -83.917115 7.082886 45.519715 67.891737 -54.968205 -47.804924 -1.042792 -0.246636 -2.767416 16.461106 -10.383970 -3.133095 78.393339 4.038616 65.424165 -87.469794 57.602615 -64.904609 1.852864 0.081366 -0.885648 -15.602299 9.539362 -2.912004 
2.192439 16.395157 82.720634 -3.370440 2.146768 -9.973257 -11.182146 -10.944166 -34.950235 5.195701 15.683673 43.963088 2.829298 0.718264 31.657651 0.021401 -0.944499 -2.596000 13.786989 0.110772 -27.989842 -18.752278 -19.753862 84.030437 -0.486940 -2.275584 22.462456 -1.940100 8.740099 -24.985602 6.806662 3.041259 17.366605 0.176499 1.174153 -7.051455 3.365244 -4.138651 -10.140936 1.042001 -1.539000 6.354299 -84.216509 6.797385 43.670917 64.909992 -54.172237 -45.321088 -1.187154 -0.271142 -3.543652 18.098154 -9.663904 -3.226269 77.209503 3.577461 63.002530 -75.694737 55.862273 -55.146236 1.759926 0.433222 -1.832397 -14.570458 7.095392 -1.880488 
2.266042 16.611652 83.012283 -3.199330 1.752228 -9.446361 -11.678256 -10.594327 -33.519403 4.839775 15.256757 42.729073 2.659478 1.469869 31.527188 0.016299 -0.824699 -2.266498 14.439078 -0.820116 -29.591430 -17.820912 -19.729906 80.556863 0.449557 -4.569184 18.849736 -2.134899 9.141700 -26.239601 6.735830 2.415890 17.040893 0.260902 1.004916 -7.226620 3.248448 -3.521166 -10.249455 0.861600 -1.377500 6.477300 -84.297407 6.383827 42.325219 61.527314 -53.202070 -42.393843 -1.307446 -0.313358 -4.469721 19.287865 -8.673406 -3.091885 76.426640 3.308081 59.851779 -64.122148 53.121223 -44.875702 1.621350 0.747671 -2.364878 -13.415566 3.844446 -0.742275 
2.329716 16.833454 83.290283 -2.972944 1.308914 -8.896766 -12.165299 -10.377373 -32.037027 4.463254 14.801016 41.323559 2.392988 2.499623 31.511506 0.013200 -0.743099 -2.042299 15.165836 -1.411809 -30.802853 -16.427067 -19.589011 76.039199 1.029803 -5.944111 16.761964 -2.281700 9.429799 -27.149301 6.598097 2.020019 16.722375 0.380817 0.893698 -7.331545 3.099865 -3.065009 -10.414715 0.735800 -1.257700 6.606099 -84.166758 5.842264 41.477517 57.894348 -52.081660 -39.176139 -1.409533 -0.369263 -5.346996 20.077326 -7.418676 -2.740400 75.941141 3.181940 55.616515 -53.653136 49.806486 -35.477007 1.541456 1.001266 -1.873965 -12.363063 0.712481 0.192263 
2.382716 17.055965 83.559616 -2.722471 0.887765 -8.304258 -12.627112 -10.314468 -30.561188 4.087321 14.337693 39.827970 2.044526 3.727428 31.555821 0.010901 -0.672799 -1.848998 15.881239 -1.723492 -31.569647 -14.618688 -19.255444 70.664578 1.130460 -6.230050 15.827762 -2.456597 9.758599 -28.198601 6.391995 1.797488 16.324973 0.576185 0.823885 -7.338736 2.894029 -2.732374 -10.620893 0.670299 -1.168199 6.755901 -83.870732 5.233545 41.079782 54.202643 -50.856082 -35.870889 -1.500078 -0.431049 -5.960541 20.543987 -5.983661 -2.227958 75.594975 3.091554 50.465598 -44.789585 46.173407 -27.775591 1.575836 1.128171 -0.321695 -11.835311 -1.294251 0.724858 
2.424278 17.273882 83.823700 -2.499459 0.545931 -7.650929 -13.024304 -10.379892 -29.177296 3.729345 13.888299 38.329926 1.656549 5.016487 31.616305 0.008599 -0.598800 -1.645398 16.537644 -1.791470 -31.909315 -12.513482 -18.668735 64.701668 0.845440 -5.774123 15.645054 -2.763799 10.302500 -29.962099 6.171015 1.678121 15.794608 0.849591 0.776424 -7.256670 2.619147 -2.476585 -10.823435 0.622301 -1.099200 6.896899 -83.471997 4.634887 41.059200 50.647336 -49.585770 -32.684852 -1.574368 -0.483426 -6.294562 20.669115 -4.676935 -1.705110 75.209329 2.957226 44.848862 -37.646888 42.494149 -21.889598 1.729474 1.131770 1.162582 -12.124366 -2.161396 0.971949 
2.453676 17.481716 84.084534 -2.336813 0.366321 -6.960836 -13.340937 -10.546136 -27.913471 3.394380 13.467090 36.905093 1.288110 6.206819 31.665832 0.006401 -0.515200 -1.415599 17.079943 -1.655273 -31.811538 -10.268037 -17.809842 58.456516 0.352737 -5.067687 16.038466 -3.095799 10.848498 -31.770700 5.954237 1.553256 15.122115 1.189177 0.721357 -7.104981 2.298812 -2.251226 -10.950637 0.559500 -1.039601 6.989700 -83.009953 4.111202 41.305703 47.346448 -48.319261 -29.749844 -1.634408 -0.515752 -6.449745 20.567865 -3.718313 -1.304631 74.721896 2.730157 39.202920 -32.006994 38.994602 -17.511948 1.984063 1.122210 1.309994 -13.040911 -2.610544 1.162861 
2.470866 17.675888 84.343048 -2.204992 0.367188 -6.269573 -13.608619 -10.747835 -26.754846 3.072758 13.074851 35.584670 0.990007 7.181855 31.699267 0.004899 -0.452401 -1.243002 17.416095 -1.263984 -31.238676 -8.047249 -16.710624 52.223168 -0.153166 -4.568316 17.068724 -3.312999 11.185299 -32.907400 5.700881 1.367271 14.317323 1.564177 0.642816 -6.887737 1.982362 -2.035428 -10.952939 0.476899 -0.983000 7.015299 -82.486097 3.754903 41.724786 44.474271 -47.147925 -27.233543 -1.677481 -0.539292 -6.564048 20.275465 -3.075560 -1.024679 74.129287 2.420332 33.858232 -27.509214 35.770486 -14.224253 2.306454 1.177862 0.016892 -14.223068 -3.075735 1.410905 
2.477218 17.855165 84.600449 -2.070383 0.597508 -5.611917 -13.869395 -10.983122 -25.657208 2.745283 12.704108 34.368543 0.804891 7.854145 31.724393 0.003400 -0.376700 -1.035097 17.471408 -0.622335 -30.188454 -6.000564 -15.447442 46.272766 -0.534180 -4.560158 18.891225 -3.395301 11.308999 -33.329402 5.379125 1.038328 13.393372 1.926369 0.519214 -6.599798 1.719044 -1.825971 -10.816215 0.388600 -0.926200 6.987599 -81.888884 3.607757 42.221428 42.115877 -46.143028 -25.208759 -1.704343 -0.575799 -6.651858 19.824886 -2.516133 -0.768298 73.474387 2.063814 28.890854 -23.782904 32.789642 -11.658360 2.617249 1.233248 -1.199780 -15.194425 -3.398276 1.615929 
2.475070 18.019321 84.856522 -1.909319 1.036850 -4.995674 -14.147634 -11.226346 -24.608694 2.401997 12.353073 33.265053 0.762709 8.165565 31.738851 0.001699 -0.264000 -0.725300 17.254148 0.220660 -28.745377 -4.255289 -14.138433 40.888251 -0.754054 -5.094477 21.550963 -3.229701 11.057901 -32.475501 4.989815 0.553850 12.344479 2.225994 0.349321 -6.238016 1.532859 -1.633760 -10.549508 0.317599 -0.869700 6.950600 -81.217046 3.654615 42.697285 40.191107 -45.299952 -23.598365 -1.701653 -0.635911 -6.578320 19.080286 -1.911234 -0.478467 72.789202 1.662878 24.286729 -20.558244 29.982345 -9.566725 2.850444 1.161216 -0.673112 -15.628476 -3.352987 1.632498 
